<svg xmlns="http://www.w3.org/2000/svg" xmlns:xlink="http://www.w3.org/1999/xlink" width="1600" height="883" viewBox="0 0 1600 883"><defs><clipPath id="a"><rect width="1600" height="883" transform="translate(-16069 -11058)" fill="none" stroke="#707070" stroke-width="1"/></clipPath></defs><g transform="translate(16069 11058)" clip-path="url(#a)"><g transform="translate(-16102 -13538)"><path d="M3162.137-29.862c-395.386,16.715-403.179,188.856-798.561,205.571S1975.987,20.284,1580.605,37c-395.4,16.716-403.193,188.857-798.593,205.573S394.4,87.147-1,103.863" transform="matrix(-0.899, -0.438, 0.438, -0.899, 1626.922, 3378.91)" fill="none" stroke="#4080cb" stroke-miterlimit="10" stroke-width="1" opacity="0.1"/><path d="M3162.137-29.862c-395.386,16.715-403.179,188.856-798.561,205.571S1975.987,20.284,1580.605,37c-395.4,16.716-403.193,188.857-798.593,205.573S394.4,87.147-1,103.863" transform="matrix(-0.899, -0.438, 0.438, -0.899, 1643.922, 3480.566)" fill="none" stroke="#4080cb" stroke-miterlimit="10" stroke-width="1" opacity="0.1"/><path d="M2166.7,0c-361.114,0-361.114,168.34-722.225,168.34S1083.364,0,722.254,0C361.127,0,361.127,168.341,0,168.34" transform="translate(1170.64 3058.904) rotate(-160)" fill="none" stroke="#4080cb" stroke-miterlimit="10" stroke-width="1" opacity="0.24"/><g transform="translate(-651.518 2370.781)"><path d="M2166.7,0c-361.114,0-361.114,168.34-722.225,168.34S1083.364,0,722.254,0C361.127,0,361.127,168.341,0,168.34" transform="translate(2036.031 899.243) rotate(-160)" fill="none" stroke="#4080cb" stroke-miterlimit="10" stroke-width="1" opacity="0.24"/></g><path d="M2888.953,0c-361.114,0-361.114,168.34-722.225,168.34S1805.618,0,1444.508,0c-361.127,0-361.127,168.34-722.254,168.34S361.127,0,0,0" transform="translate(2235.844 3601.133) rotate(-160)" fill="none" stroke="#4080cb" stroke-miterlimit="10" stroke-width="1" opacity="0.2"/></g></g></svg>